<?xml version="1.0" encoding="utf-8"?>
<!-- Generator: Adobe Illustrator 18.0.0, SVG Export Plug-In . SVG Version: 6.00 Build 0)  -->
<!DOCTYPE svg PUBLIC "-//W3C//DTD SVG 1.1//EN" "http://www.w3.org/Graphics/SVG/1.1/DTD/svg11.dtd">
<svg version="1.1" id="Layer_1" xmlns="http://www.w3.org/2000/svg" xmlns:xlink="http://www.w3.org/1999/xlink" x="0px" y="0px"
	 width="40px" height="40px" viewBox="0 0 40 40" enable-background="new 0 0 40 40" xml:space="preserve">
<g>
	<path fill="#D1B53C" d="M16.5,18.6c0.4,0,0.8-0.2,1.1-0.5c0.5-0.5,0.7-1.4,0.5-2.3c-0.2-1.6-1.4-3-2.6-3l0,0
		c-0.4,0-0.8,0.2-1.1,0.5c-0.5,0.5-0.6,1.3-0.5,2.2C14.1,17.2,15.3,18.6,16.5,18.6L16.5,18.6z"/>
	<path fill="#D1B53C" d="M17.8,23.6c-0.1-0.1-0.2-0.2-0.4-0.3c-0.4-0.1-0.8-0.2-1.2-0.2h-0.1c-1.9,0-3.5,1.1-3.5,2.4
		c0,1.4,1.4,2.5,3.2,2.5c2.4,0,3.6-0.8,3.6-2.4c0-0.2,0-0.3-0.1-0.5C19.3,24.5,18.7,24.1,17.8,23.6z"/>
	<path fill="#D1B53C" d="M19.8,2.4c-9.7,0-17.5,7.8-17.5,17.5c0,9.7,7.8,17.5,17.5,17.5c9.7,0,17.5-7.8,17.5-17.5
		C37.3,10.3,29.5,2.4,19.8,2.4z M18.2,29.5c-0.7,0.2-1.5,0.3-2.2,0.3c-0.9,0-1.7-0.1-2.5-0.3c-1.5-0.4-2.7-1.1-3.2-2.1
		C10,27,9.9,26.6,9.9,26.1c0-0.5,0.1-0.9,0.3-1.4c0.8-1.8,3-3,5.5-3c0,0,0,0,0.1,0c-0.2-0.3-0.3-0.7-0.3-1.1c0-0.2,0-0.4,0.1-0.6
		c-2.6-0.1-4.5-1.9-4.5-4.4c0-1.8,1.4-3.5,3.4-4.1c0.6-0.2,1.2-0.3,1.8-0.3h5.5c0.2,0,0.4,0.1,0.4,0.3c0.1,0.2,0,0.4-0.2,0.5
		l-1.2,0.9c-0.1,0.1-0.2,0.1-0.3,0.1h-0.4c0.6,0.7,0.9,1.6,0.9,2.7c0,1.2-0.6,2.3-1.7,3.2c-0.9,0.7-0.9,0.8-0.9,1.2
		c0,0.2,0.6,0.9,1.3,1.4c1.5,1.1,2.1,2.1,2.1,3.9C21.8,27.2,20.4,28.9,18.2,29.5z M30.6,20.1c0,0.2-0.2,0.4-0.4,0.4H27v3.1
		c0,0.2-0.2,0.4-0.4,0.4h-0.9c-0.2,0-0.4-0.2-0.4-0.4v-3.1h-3.1c-0.2,0-0.4-0.2-0.4-0.4v-0.9c0-0.2,0.2-0.4,0.4-0.4h3.1v-3.1
		c0-0.2,0.2-0.4,0.4-0.4h0.9c0.2,0,0.4,0.2,0.4,0.4v3.1h3.1c0.2,0,0.4,0.2,0.4,0.4V20.1z"/>
</g>
</svg>
