<?xml version="1.0" encoding="utf-8"?>
<!-- Generator: Adobe Illustrator 18.0.0, SVG Export Plug-In . SVG Version: 6.00 Build 0)  -->
<!DOCTYPE svg PUBLIC "-//W3C//DTD SVG 1.1//EN" "http://www.w3.org/Graphics/SVG/1.1/DTD/svg11.dtd">
<svg version="1.1" id="Layer_1" xmlns="http://www.w3.org/2000/svg" xmlns:xlink="http://www.w3.org/1999/xlink" x="0px" y="0px"
	 width="40px" height="40px" viewBox="0 0 40 40" enable-background="new 0 0 40 40" xml:space="preserve">
<path fill="#D1B53C" d="M20.1,2.4c-9.7,0-17.5,7.8-17.5,17.5c0,9.7,7.8,17.5,17.5,17.5c9.7,0,17.5-7.8,17.5-17.5
	C37.7,10.3,29.8,2.4,20.1,2.4z M26.1,29.2c-0.6-0.3-1.7-6.6-2.8-9.9c-0.2,0-0.5,0-0.7,0c0,1.8,0.2,3.7-0.1,5.5
	c-0.1,1-0.9,2.1-1.7,2.6c-1.3,0.7-2.7,0.4-3.5-1.2c-0.6-1.1-1.4-2.1-2.4-3.7c-0.4,2.4,0.7,5.4-2.3,5.2c-2.8-0.2-1.9-3.1-2.1-4.8
	c-0.3-2.4-0.2-4.8,0-7.2c0.1-0.8,0.8-2.2,1.3-2.2c1.1-0.1,2.7,0.1,3.4,0.9c1.2,1.3,1.9,3,3,4.9c0.9-2.9,1.5-5.3,2.5-7.6
	c0.4-0.9,1.8-2,2.7-1.9c0.9,0.1,2.3,1.2,2.6,2.2c1.4,5.3,3.9,16,3.9,16.2C29.7,28.4,26.9,29.5,26.1,29.2z"/>
</svg>
