<?xml version="1.0" encoding="utf-8"?>
<!-- Generator: Adobe Illustrator 18.0.0, SVG Export Plug-In . SVG Version: 6.00 Build 0)  -->
<!DOCTYPE svg PUBLIC "-//W3C//DTD SVG 1.1//EN" "http://www.w3.org/Graphics/SVG/1.1/DTD/svg11.dtd">
<svg version="1.1" id="Layer_1" xmlns="http://www.w3.org/2000/svg" xmlns:xlink="http://www.w3.org/1999/xlink" x="0px" y="0px"
	 width="40px" height="40px" viewBox="0 0 40 40" enable-background="new 0 0 40 40" xml:space="preserve">
<path fill="#D1B53C" d="M20.4,2.4c-9.7,0-17.5,7.9-17.5,17.5c0,9.7,7.8,17.5,17.5,17.5c9.7,0,17.5-7.8,17.5-17.5
	C38,10.3,30.1,2.4,20.4,2.4z M29.3,16.4c0,0.2,0,0.4,0,0.6c0,5.8-4.4,12.6-12.6,12.6c-2.5,0-4.8-0.7-6.8-2c0.3,0,0.7,0.1,1.1,0.1
	c2.1,0,4-0.7,5.5-1.9c-1.9,0-3.6-1.3-4.1-3.1c0.3,0.1,0.5,0.1,0.8,0.1c0.4,0,0.8-0.1,1.2-0.2c-2-0.4-3.5-2.2-3.5-4.3c0,0,0,0,0-0.1
	c0.6,0.3,1.3,0.5,2,0.6c-1.2-0.8-2-2.1-2-3.7c0-0.8,0.2-1.6,0.6-2.2c2.2,2.7,5.4,4.4,9.1,4.6c-0.1-0.3-0.1-0.7-0.1-1
	c0-2.4,2-4.4,4.4-4.4c1.3,0,2.4,0.5,3.2,1.4c1-0.2,2-0.6,2.8-1.1c-0.3,1-1,1.9-1.9,2.4c0.9-0.1,1.7-0.3,2.5-0.7
	C30.9,15,30.1,15.8,29.3,16.4z"/>
</svg>
